# xmcd
#
# Track frame offsets: 
#        150
#        30469
#        86088
#        115279
#        134752
#        188246
#
# Disc length: 2937 seconds
#
# Revision: 0
# Processed by: cddbd v1.5.2PL0 Copyright (c) Steve Scherf et al.
# Submitted via: ExactAudioCopy v1.0b1
#
DISCID=500b7706
DTITLE=Eric Clapton  - Remarkable Milestone - Royal Albert Hall  5-20-
DTITLE=09l - Disc 4
DYEAR=1900
DGENRE=
TTITLE0=Badge
TTITLE1=Little Queen Of Spades
TTITLE2=Before You Accuse Me
TTITLE3=Wonderful Tonight
TTITLE4=Cocaine
TTITLE5=Crossroads
EXTD=
EXTT0=
EXTT1=
EXTT2=
EXTT3=
EXTT4=
EXTT5=
PLAYORDER=
